<?xml version="1.0" standalone="no"?>
<!DOCTYPE svg PUBLIC "-//W3C//DTD SVG 20010904//EN"
 "http://www.w3.org/TR/2001/REC-SVG-20010904/DTD/svg10.dtd">
<svg version="1.0" xmlns="http://www.w3.org/2000/svg"
 width="1920.000000pt" height="1080.000000pt" viewBox="0 0 1920.000000 1080.000000"
 preserveAspectRatio="xMidYMid meet">

<g transform="translate(0.000000,1080.000000) scale(0.100000,-0.100000)"
fill="#000000" stroke="none">
<animate attributeName="transform" type="translate" from="1920 0" to="-1920 0" dur="10s" repeatCount="indefinite"/>
<path d="M0 5400 l0 -5400 9600 0 9600 0 0 5400 0 5400 -9600 0 -9600 0 0
-5400z m9330 724 c9 -27 15 -33 21 -23 5 8 9 24 9 37 0 15 6 22 19 22 18 0 19
-3 5 -57 -7 -32 -13 -79 -14 -105 0 -36 -4 -48 -15 -48 -10 0 -15 10 -15 29 0
16 -11 59 -25 95 -29 77 -30 86 -11 86 8 0 20 -16 26 -36z m158 -64 c-4 -123
-22 -139 -26 -22 -2 64 -6 82 -17 82 -20 0 -19 17 3 29 39 23 43 16 40 -89z
m159 89 c13 -13 5 -168 -10 -186 -10 -14 -54 -17 -81 -7 -13 5 -16 23 -16 89
0 46 3 90 6 99 7 19 84 22 101 5z m-408 -8 c8 -5 20 -43 27 -88 17 -101 17
-113 0 -113 -15 0 -26 21 -26 51 0 12 -7 19 -20 19 -18 0 -20 -4 -14 -40 5
-33 4 -40 -10 -40 -17 0 -21 11 -36 114 -12 74 -6 91 33 99 12 2 24 5 27 5 3
1 11 -2 19 -7z m565 -11 c5 -5 3 -48 -5 -102 -12 -76 -17 -93 -33 -96 -16 -3
-17 1 -11 37 6 37 5 41 -14 41 -17 0 -21 -6 -21 -30 0 -28 -22 -51 -36 -38 -6
6 16 156 28 187 7 21 13 22 46 16 20 -3 41 -10 46 -15z m154 -49 c5 -31 -27
-158 -42 -170 -8 -7 -26 -6 -54 1 -32 8 -41 15 -38 27 3 9 10 39 16 66 6 28
15 67 21 87 l9 37 43 -13 c32 -9 43 -17 45 -35z m-859 20 c6 -10 13 -37 17
-59 6 -38 4 -42 -21 -54 -24 -11 -26 -16 -21 -51 6 -33 4 -38 -11 -35 -12 2
-23 28 -40 93 -12 50 -21 95 -18 102 4 11 27 18 67 22 10 0 22 -7 27 -18z
m-258 -127 c9 -11 -5 -70 -22 -88 -10 -11 -79 33 -79 50 0 6 7 28 15 48 l16
37 30 -18 c17 -10 35 -23 40 -29z m1341 1 l17 -45 -37 -25 c-20 -14 -40 -25
-44 -25 -6 0 -32 66 -33 82 0 7 65 57 75 58 3 0 13 -20 22 -45z m-573 -115
c281 -25 516 -108 749 -263 87 -58 107 -76 122 -112 17 -40 60 -182 60 -199 0
-4 -35 24 -77 63 -390 358 -927 477 -1422 315 -606 -198 -1008 -782 -978
-1419 13 -282 114 -560 284 -786 120 -160 311 -326 427 -372 79 -32 194 -29
269 5 70 33 164 120 218 202 45 70 46 69 20 -6 -68 -197 -34 -267 74 -155 58
60 135 206 142 270 6 53 -25 102 -84 135 l-41 22 -37 -50 c-52 -71 -137 -143
-216 -185 -38 -20 -69 -40 -69 -45 0 -5 14 -25 31 -45 30 -33 30 -35 9 -35
-35 0 -140 30 -182 51 -21 11 -43 17 -48 14 -10 -6 -2 -71 12 -98 17 -33 1
-30 -61 12 -65 45 -123 98 -160 146 l-22 30 6 -65 6 -65 -37 35 c-153 145
-198 386 -106 566 36 71 117 150 190 186 75 37 175 49 227 27 30 -12 29 -12
-31 -20 -124 -15 -224 -95 -259 -206 -24 -74 -25 -204 -3 -254 26 -59 83 -114
150 -145 57 -26 73 -29 168 -29 99 0 109 2 173 34 110 53 206 162 237 269 13
41 30 57 30 28 0 -22 47 -73 74 -80 58 -14 84 16 101 118 5 30 22 56 73 110
43 44 56 63 37 51 -16 -10 -49 -30 -72 -43 l-43 -24 0 65 0 64 70 63 c70 61
88 91 33 52 -44 -31 -111 -63 -116 -54 -3 4 -8 26 -12 50 l-7 42 84 81 c84 82
86 87 11 37 -23 -16 -57 -35 -76 -43 l-34 -14 -12 40 c-16 52 -9 71 37 103 21
14 58 46 82 72 l45 47 -75 -52 c-51 -36 -82 -51 -100 -49 -23 3 -27 10 -41 78
-9 41 -20 83 -24 92 -7 18 -63 48 -92 49 -10 0 19 13 65 29 158 54 203 106
201 236 -1 95 -17 132 -18 41 -1 -37 -7 -82 -14 -100 -22 -51 -88 -104 -154
-122 -100 -28 -133 -43 -198 -92 -66 -49 -74 -66 -37 -71 24 -4 30 -21 10 -24
-30 -4 -178 -3 -178 1 0 32 30 71 76 99 75 46 89 71 86 146 -2 46 2 71 17 100
12 22 19 41 17 44 -7 6 -89 -49 -128 -86 -39 -37 -49 -77 -26 -100 22 -22 -47
-14 -76 9 l-26 20 0 -23 c0 -13 5 -29 12 -36 21 -21 -33 -14 -70 8 -18 11 -35
20 -38 20 -10 0 -34 -70 -34 -101 0 -31 -1 -31 -19 -15 -18 16 -20 16 -40 -10
-30 -38 -29 -113 2 -141 12 -11 30 -23 40 -26 28 -10 82 17 112 57 l28 37 -27
54 c-14 29 -26 56 -26 60 0 3 18 -9 40 -26 l41 -33 30 37 c33 40 66 60 114 71
25 5 22 2 -17 -20 -42 -24 -54 -39 -99 -127 -55 -107 -110 -169 -165 -187 -69
-23 -143 11 -171 78 -16 38 -11 56 7 23 16 -31 33 -26 25 8 -13 60 17 129 70
159 14 7 14 12 -1 48 -23 53 -23 185 0 238 28 66 36 71 55 34 14 -28 22 -33
56 -36 45 -3 94 22 119 60 8 13 40 106 70 207 31 101 58 186 61 189 3 3 5 -19
5 -49 0 -67 16 -128 36 -136 48 -18 118 74 238 318 l92 185 -4 -86 c-7 -137
26 -177 124 -150 24 7 72 31 107 54 34 23 68 46 75 50 8 4 -13 -28 -46 -72
-120 -163 -163 -252 -127 -266 29 -11 136 13 301 69 87 30 160 53 161 51 1 -1
-47 -38 -108 -81 -61 -43 -137 -102 -168 -131 -82 -76 -75 -79 162 -77 l192 2
-83 -25 c-119 -35 -223 -87 -279 -140 -30 -29 -41 -44 -28 -40 11 3 46 13 78
22 31 10 60 15 63 12 3 -3 -6 -29 -20 -57 -27 -53 -60 -175 -53 -195 3 -6 19
21 37 59 18 39 52 112 75 163 l44 92 51 -50 c54 -52 79 -64 126 -58 22 2 34
12 49 43 17 35 20 59 19 192 l-1 151 45 -60 c55 -73 131 -135 176 -144 23 -4
46 0 70 11 109 52 114 236 12 507 -19 51 -33 94 -31 96 8 8 121 -61 187 -115
237 -190 391 -520 439 -943 16 -147 6 -531 -19 -670 -10 -58 -21 -98 -25 -90
-3 8 -11 58 -17 110 -45 361 -149 637 -265 705 -74 44 -174 24 -203 -39 -39
-87 -7 -250 89 -449 l20 -42 -28 35 c-137 172 -240 223 -305 151 -39 -44 -37
-90 7 -177 19 -38 64 -104 100 -147 l66 -77 -43 7 c-24 5 -83 8 -133 8 -129
-1 -175 -29 -175 -107 0 -72 70 -118 180 -118 144 0 288 57 386 154 53 52 65
71 83 128 31 102 52 214 58 311 3 48 9 87 12 87 8 0 52 -133 76 -229 19 -74
14 -102 -42 -265 -179 -516 -626 -901 -1178 -1013 -138 -28 -463 -25 -602 5
-870 189 -1405 1035 -1197 1892 155 643 711 1121 1371 1179 128 12 137 12 262
1z m-764 -372 c-120 -108 -285 -287 -285 -309 0 -4 29 5 64 21 81 37 192 68
272 76 l62 7 -107 -110 c-112 -115 -218 -249 -291 -368 -119 -193 -219 -474
-220 -613 l0 -44 33 28 c36 31 114 68 167 79 l35 7 -60 -60 c-135 -136 -199
-320 -176 -507 5 -38 7 -72 5 -74 -8 -9 -78 152 -102 237 -25 91 -27 110 -27
297 0 176 3 210 23 283 44 162 134 355 228 490 24 34 40 62 36 62 -14 0 -87
-53 -130 -94 -52 -49 -118 -133 -157 -199 -15 -26 -29 -46 -31 -44 -7 7 67
209 103 281 93 186 223 342 388 466 80 60 232 159 245 160 3 0 -31 -32 -75
-72z m166 -1258 c221 -69 330 -323 230 -536 -35 -74 -111 -155 -186 -198 -27
-16 -52 -31 -55 -33 -3 -2 6 -13 20 -24 l25 -21 -70 6 c-78 5 -151 29 -193 62
l-27 22 50 7 c150 20 250 82 304 188 30 59 34 76 33 137 -2 136 -73 239 -188
275 -83 26 -213 18 -286 -18 -75 -37 -151 -115 -193 -200 -34 -67 -35 -68 -35
-34 0 57 37 159 79 218 46 64 127 124 203 150 74 26 206 25 289 -1z m-688
-1187 c5 -42 5 -42 -39 -59 -25 -9 -46 -15 -48 -13 -2 2 -6 23 -10 47 l-6 43
42 18 c24 10 46 16 49 12 4 -3 9 -25 12 -48z m2448 -24 c-1 -24 -5 -46 -7 -48
-3 -3 -24 2 -47 11 -40 15 -42 17 -39 54 5 64 6 66 54 45 42 -18 43 -19 39
-62z m-247 -75 c12 -34 32 -74 44 -91 18 -25 19 -33 8 -42 -10 -9 -18 -4 -36
22 -12 18 -46 50 -76 71 -30 22 -54 43 -54 47 0 18 28 14 58 -9 37 -28 37 -27
17 21 -14 34 -11 51 8 44 5 -1 19 -30 31 -63z m-1999 36 c3 -6 -3 -24 -15 -40
-21 -29 -21 -60 -1 -60 5 0 19 16 31 34 13 22 26 33 36 29 7 -3 14 -7 14 -10
0 -4 -103 -156 -117 -172 -2 -3 -8 0 -14 6 -9 9 -6 21 11 48 17 28 20 39 11
48 -9 9 -20 2 -46 -28 -27 -33 -35 -37 -40 -23 -4 11 12 43 50 97 56 80 68 91
80 71z m1875 -54 c0 -8 -4 -17 -10 -21 -5 -3 13 -40 40 -83 34 -54 45 -79 37
-84 -19 -12 -20 -11 -67 67 -33 55 -49 73 -62 69 -33 -10 -27 14 10 39 43 30
52 32 52 13z m-1730 -41 c39 -20 38 -39 -10 -120 -46 -79 -54 -90 -69 -81 -8
5 -6 16 4 36 19 37 19 50 0 50 -8 0 -21 -13 -30 -30 -10 -19 -20 -27 -30 -24
-8 4 -15 8 -15 11 0 8 59 112 82 146 22 31 29 32 68 12z m1664 -99 c49 -90 54
-106 32 -106 -17 0 -109 166 -101 180 13 21 25 7 69 -74z m-1524 26 c17 -14
21 -24 15 -41 -8 -27 -40 -24 -40 3 0 40 -22 24 -53 -40 -23 -47 -30 -70 -23
-77 8 -8 14 -8 22 0 19 19 40 4 28 -18 -12 -23 -37 -24 -67 -3 -30 20 -28 37
13 122 38 79 60 90 105 54z m1430 -14 c11 -18 20 -44 20 -57 0 -13 12 -37 26
-53 19 -23 22 -34 14 -42 -9 -8 -19 -2 -41 23 -35 42 -49 34 -26 -14 15 -32
15 -36 2 -42 -9 -3 -17 -4 -19 -2 -5 6 -86 181 -86 186 0 6 63 32 78 33 7 0
21 -15 32 -32z m-1340 -23 c0 -1 -7 -22 -15 -46 l-16 -44 31 38 c17 20 38 37
46 37 20 0 18 -6 -18 -52 -30 -37 -33 -45 -30 -99 3 -51 2 -58 -12 -53 -9 3
-16 18 -17 33 0 14 -4 35 -8 46 -7 17 -10 15 -20 -18 -7 -20 -16 -37 -21 -37
-21 0 -20 9 21 188 9 39 39 23 46 -23z m1223 -72 c35 -99 35 -121 0 -134 -53
-20 -64 -10 -99 88 -27 74 -30 92 -19 97 17 6 24 -6 55 -96 22 -63 40 -82 55
-59 3 5 -8 46 -24 90 -16 44 -27 82 -23 85 16 17 30 -1 55 -71z m-1099 28 c6
-10 -42 -181 -55 -195 -6 -6 -13 -6 -19 0 -8 8 10 85 45 192 5 14 21 16 29 3z
m940 -23 c16 -27 -9 -49 -27 -23 -15 19 -39 13 -32 -8 2 -7 11 -38 20 -69 16
-60 29 -70 50 -41 11 15 35 11 35 -7 0 -19 -33 -40 -65 -40 -33 0 -33 1 -54 78
-26 98 -26 110 2 122 31 13 58 8 71 -12z m-853 -33 c5 -39 9 -37 24 10 4 13 35
22 35 10 0 -7 -40 -179 -45 -192 -2 -7 -11 -10 -19 -7 -10 4 -13 15 -10 37 3
18 1 45 -4 61 -8 28 -9 27 -21 -27 -8 -37 -18 -57 -27 -57 -21 0 -20 9 21 188
9 39 39 23 46 -23z m719 14 c0 -6 -9 -13 -20 -16 -32 -8 -23 -63 10 -63 27 0
33 -17 9 -23 -16 -4 -20 -12 -17 -34 2 -22 9 -29 31 -31 16 -2 26 -9 24 -15
-5 -16 -70 -28 -78 -15 -4 5 -12 42 -18 81 -7 40 -14 82 -17 94 -4 15 0 23 13
26 34 9 63 7 63 -4z m-532 -22 c15 -15 6 -47 -13 -47 -7 0 -15 9 -18 20 -6 23
-22 26 -30 7 -3 -8 -8 -44 -12 -80 -6 -56 -5 -67 8 -67 18 0 31 42 15 51 -17
11 0 28 23 22 19 -5 21 -11 16 -50 -2 -24 -7 -46 -10 -49 -11 -11 -85 8 -91 22
-8 20 14 166 27 182 13 16 65 9 85 -11z m416 -9 c8 -13 7 -21 -2 -30 -11 -11
-15 -10 -23 5 -6 9 -17 17 -24 17 -16 0 -20 -27 -7 -46 4 -6 21 -15 37 -21 28
-9 30 -13 30 -59 l0 -49 -41 -3 c-32 -2 -43 1 -48 14 -8 20 14 38 28 24 18 -18
38 -11 34 12 -2 15 -16 29 -40 41 -35 16 -38 20 -38 61 0 26 5 47 13 50 24 10
70 1 81 -16z m-210 -10 c8 -13 7 -21 -2 -30 -11 -11 -15 -10 -23 5 -15 26 -29
20 -29 -12 0 -26 4 -30 33 -33 31 -3 32 -4 29 -43 -6 -63 -17 -77 -60 -73 l-37
3 -2 85 c0 46 3 93 9 103 12 23 66 20 82 -5z"/>
<path d="M9586 6131 c-3 -5 -9 -41 -12 -80 -6 -67 -6 -71 13 -71 24 0 33 24
33 96 0 37 -4 54 -15 57 -8 4 -17 2 -19 -2z"/>
<path d="M9190 6085 c0 -23 6 -38 15 -42 23 -8 28 2 21 42 -9 48 -36 48 -36 0z"/>
<path d="M9736 6089 c-9 -46 -8 -49 14 -49 16 0 20 7 20 30 0 17 0 33 1 38 0
4 -6 8 -14 10 -9 2 -17 -9 -21 -29z"/>
<path d="M9878 6018 c-12 -54 -13 -75 -4 -80 6 -4 14 -4 18 0 10 10 38 134 32
144 -15 25 -32 2 -46 -64z"/>
<path d="M9044 6059 c3 -17 6 -35 6 -40 0 -11 27 -12 33 -1 9 16 -14 72 -30
72 -12 0 -14 -7 -9 -31z"/>
<path d="M10716 5209 c12 -171 -29 -274 -128 -323 -63 -32 -126 -33 -187 -6
-24 11 -44 20 -46 20 -1 0 -5 -22 -9 -49 -9 -67 -54 -151 -95 -178 -23 -16
-49 -23 -80 -23 -46 0 -122 28 -135 49 -15 24 -34 9 -54 -41 -11 -29 -28 -71
-37 -93 l-17 -40 29 26 c92 85 175 62 311 -87 l67 -74 -3 88 c-5 109 9 162 55
212 58 65 147 76 250 30 26 -11 48 -18 50 -16 3 2 9 37 14 76 14 115 62 170
124 142 35 -16 100 -78 141 -134 20 -27 38 -47 40 -45 8 7 -37 150 -74 236
-44 100 -132 238 -186 290 l-36 35 6 -95z"/>
<path d="M9137 4942 c-33 -35 -38 -69 -7 -50 18 11 45 66 37 75 -2 1 -16 -10
-30 -25z"/>
<path d="M9816 4243 c8 -37 17 -122 20 -188 23 -420 -144 -816 -430 -1016 -38
-27 -66 -49 -62 -49 18 0 168 83 221 122 97 72 210 219 279 365 l29 61 91 -44
c142 -67 219 -85 376 -90 144 -4 136 5 -23 25 -48 7 -117 22 -152 35 -74 27
-202 98 -244 135 l-28 26 8 120 c13 186 -8 355 -63 495 -31 79 -37 80 -22 3z"/>
<path d="M8621 2839 c-11 -18 -18 -36 -15 -41 10 -16 30 -7 47 21 15 25 15 30
2 41 -12 10 -18 6 -34 -21z"/>
<path d="M10183 2793 c-9 -3 -8 -13 4 -38 15 -32 43 -39 43 -10 0 19 -33 54
-47 48z"/>
<path d="M9442 2518 c4 -46 28 -49 28 -4 0 26 -4 36 -16 36 -11 0 -14 -8 -12
-32z"/>
</g>
</svg>
